<svg enable-background="new 0 0 121.375 40.5940018" viewBox="0 0 121.375 40.5940018" xmlns="http://www.w3.org/2000/svg"><g transform="translate(-.001)"><path d="m111.7340012 0h-104.1230011c-.6806846.0163244-1.3592167.083175-2.0299998.2-.6721563.0956807-1.3237152.3025033-1.9280002.612-.6043074.3139725-1.1526716.7254991-1.6230001 1.218-.4925009.4703285-.9040276 1.0186927-1.218 1.6230001-.2953969.6103456-.5015056 1.2599914-.612 1.9289997-.1118476.6711154-.1786633 1.3489632-.2 2.0290003v25.2700005c.0163244.6806831.0831751 1.3592148.2 2.0299988.0947373.671978.3005435 1.3235283.609 1.9280014.2872354.6510429.7024676 1.2376747 1.221 1.7249985.4706299.492588 1.0193379.9041176 1.6239998 1.2179985.6044707.3084564 1.2560215.5142632 1.928.6090012.6707835.1168213 1.3493156.1836739 2.0299997.2000008h106.1520004c.680687-.0163231 1.3592148-.0831757 2.0299988-.2000008.6719818-.094738 1.3235321-.3005447 1.9280014-.6090012 1.1987076-.65728 2.1847229-1.6432953 2.8420029-2.8419991.3084564-.6044693.514267-1.2560234.6090012-1.9280014.1168137-.670784.1836624-1.3493156.1999969-2.0299988v-25.3709984c-.0163345-.6806841-.0831833-1.3592157-.1999969-2.0299997-.0947571-.6719747-.30056-1.3235221-.6090012-1.928-.3138809-.6046624-.7254105-1.1533704-1.2180023-1.6240001-.4707108-.4922334-1.0194092-.9034233-1.6240005-1.2170002-.6042862-.3094968-1.2558441-.5163195-1.9280014-.612-.670784-.1168251-1.3493118-.1836754-2.0299988-.2h-2.0299988z" fill="#b7b7b7"/><path d="m8.5249996 39.6800003h-.9129996c-.6490188.028965-1.2987461-.0384331-1.928-.2000008-.5911827-.1080627-1.1693625-.2779999-1.7249999-.507-.5130935-.2794266-.9902689-.620266-1.421-1.0149994-.4271057-.4048995-.7720772-.8884009-1.0160001-1.4239997-.288869-.5315285-.462635-1.1179047-.51-1.7210007-.1064781-.6379127-.1732731-1.2818145-.2-1.9280014v-25.2719984c-.0242922-.6495328.043036-1.2992496.2-1.9299998.158147-.5571098.3618332-1.1002727.609-1.6240001.2803621-.5132532.6222144-.9904358 1.0180002-1.421.4304199-.3946676.9072561-.7355049 1.4199998-1.015.5386248-.2758231 1.1239638-.4487797 1.7259998-.51.5949083-.1611942 1.2113076-.2286707 1.8270002-.2h106.1520004c.6488647-.0241041 1.2978973.0432228 1.9280014.2.5877762.1220254 1.1646729.2915826 1.7249985.5070001.513092.2794266.9902649.6202662 1.4209976 1.0150001.4264526.4040871.7710648.8865447 1.0149994 1.421.2603149.5084848.4317856 1.0577292.5070038 1.6240001.1167297.6364832.1836014 1.2811084.1999969 1.928v25.2700024c-.0216141.6465454-.0884399 1.2907867-.1999969 1.9280014-.1080627.5911827-.2779999 1.1693611-.5070038 1.7249985-.2794266.5130959-.6202621.9902687-1.0149994 1.4210014-.4040833.4264526-.8865433.7710648-1.4209976 1.0149994-.5329742.2883606-1.1207581.4611168-1.7249985.507-.6090012.0999985-1.3190002.0999985-1.9280014.2000008h-105.2390008z" fill="#000001"/></g><g fill="#fff"><g transform="translate(10.144 8.829)"><path d="m15.0240002 11.7769995c.0466824-1.7390633.9612446-3.3391705 2.4360008-4.2619987-.9525604-1.3113184-2.4387341-2.1313524-4.0560017-2.2380008-1.7250004-.1999998-3.3490009 1.0150003-4.2619991 1.0150003s-2.2380004-1.0150003-3.6580005-1.0150003c-1.889142.0775566-3.6094542 1.1096678-4.5669994 2.7399993-1.9279995 3.348999-.507 8.4230013 1.4209995 11.1630011.9130001 1.3190002 2.0299997 2.842001 3.4499998 2.842001 1.4210005-.1000005 1.9280005-.9130002 3.6530004-.9130002s2.1310005.9130001 3.6529999.9130001 2.4360008-1.3190002 3.348999-2.7399998c.7051792-.9408779 1.2219791-2.0091114 1.5219994-3.1459999-1.819027-.6651373-3.0052167-2.4232493-2.9409981-4.3590021z"/><path d="m12.1820002 3.5520005c.8310337-.987668 1.2328339-2.2665224 1.1159992-3.552-1.2776546.0896702-2.4574966.7164726-3.2469997 1.7250004-.8435631.9401931-1.2491036 2.1938762-1.1159993 3.4499998 1.2652989-.0491658 2.448246-.6404581 3.2469998-1.6230002z"/></g><g transform="translate(35.011 18.166)"><path d="m7.9160004 9.3369999h-4.7700005l-1.1160011 3.4500008h-2.0299988l4.5670013-12.5839993h2.0329971l4.5670013 12.5839996h-2.0299987zm-4.2620011-1.5219989h3.855999l-1.9279976-5.5820007h-.0999984z"/><path d="m21.007 8.2200012c0 2.8419991-1.5219994 4.6679993-3.855999 4.6679993-1.1841774.0642815-2.2961807-.5711498-2.8419991-1.6240005v4.5680008h-1.9280014v-12.1799999h1.8269997v1.5219994c.5910339-1.0580407 1.7328338-1.6873303 2.9430008-1.6219998 2.2299995-.1000004 3.855999 1.8269997 3.855999 4.6680007zm-2.0299988 0c0-1.8269992-.9129982-3.0449996-2.4360008-3.0449996-1.4210014 0-2.4360008 1.2180004-2.4360008 3.0449996s1.0149994 3.0450001 2.4360008 3.0450001c1.5229988 0 2.4399986-1.2130013 2.4399986-3.0450001z"/><path d="m31.053997 8.2200012c0 2.8419991-1.5219994 4.6679993-3.855999 4.6679993-1.1841774.0642815-2.2961807-.5711498-2.8419991-1.6240005v4.5680008h-1.9280014v-12.1799999h1.8269997v1.5219994c.5910339-1.0580406 1.7328339-1.6873302 2.9430008-1.6219997 2.3300019-.1000005 3.855999 1.8269996 3.855999 4.6680006zm-1.9280014 0c0-1.8269992-.9129982-3.0449996-2.4360008-3.0449996-1.4210014 0-2.4360008 1.2180004-2.4360008 3.0449996s1.0149994 3.0450001 2.4360008 3.0450001c1.5230026 0 2.4380035-1.2130013 2.4380035-3.0450001z"/><path d="m37.7519989 9.2350006c.0999985 1.2180004 1.3190002 2.0300007 3.0449982 2.0300007 1.6240005 0 2.7399979-.8120003 2.7399979-1.9279995 0-1.0149994-.7099991-1.5219989-2.3339996-1.927999l-1.6239929-.4090023c-2.3339996-.6089993-3.348999-1.6240005-3.348999-3.3490009 0-2.1310005 1.9280014-3.6529999 4.5670013-3.6529999s4.4649963 1.5219994 4.5670013 3.6529999h-1.9290085c-.1655197-1.2872715-1.3432388-2.1966286-2.6305161-2.0311069-.0028305.0003624-.0056534.0007324-.0084839.0011063-1.5220032 0-2.5370026.8120004-2.5370026 1.9279996 0 .9130001.7099991 1.4209995 2.3339996 1.8269997l1.4209976.2999992c2.5370026.6089993 3.6529999 1.6240005 3.6529999 3.4500003 0 2.3339996-1.9280014 3.855999-4.8710022 3.855999-2.8420029 0-4.6679993-1.4209995-4.7699966-3.7550011z"/><path d="m49.5240021 1.4209999v2.1310005h1.7249985v1.5219994h-1.7249985v5.0739989c0 .8120003.3000031 1.1159992 1.1159973 1.1159992h.6090012v1.5219994c-.3294754.0945721-.6734009.1284561-1.0149994.1000004-1.8270035 0-2.5370026-.7099991-2.5370026-2.4360008v-5.2739958h-1.3190002v-1.5219994h1.3190002v-2.1330014h1.8270035z"/><path d="m52.3659973 8.2200012c0-2.8419986 1.7249985-4.6679988 4.3639984-4.6679988s4.3639984 1.8269997 4.3639984 4.6679988c0 2.9430008-1.7249985 4.6679993-4.3639984 4.6679993-2.7399978.0009994-4.3639984-1.8260002-4.3639984-4.6679993zm6.8000031 0c0-2.0300002-.913002-3.1459994-2.435997-3.1459994s-2.435997 1.1159992-2.435997 3.1459994.913002 3.1459999 2.435997 3.1459999 2.435997-1.2140007 2.435997-3.1459999z"/><path d="m62.6159973 3.5520005h1.8270035v1.6240005c.2696915-.9991779 1.1993408-1.6752834 2.2330017-1.6240005.3000031 0 .5070038 0 .6090012.1000004v1.7250004c-.2589188-.097208-.5372314-.131485-.8119965-.1000004-1.0336456-.0403461-1.9042816.7648773-1.9446259 1.798521-.0043411.1110992.0012207.2223663.0166245.3324795v5.4799991h-1.9290085z"/><path d="m76.0120087 10.0499992c-.1999969 1.6240005-1.9280014 2.842001-3.9580002 2.842001-2.6389999 0-4.3639984-1.8269997-4.3639984-4.6679993s1.6240005-4.77 4.262001-4.77c2.5370026 0 4.1610031 1.7250004 4.1610031 4.566999v.6089993h-6.4950027v.1000004c-.0999908 1.3538284.9164505 2.5323811 2.2702789 2.6323719.0551453.0040722.1104202.0062828.1657181.006628.9186325.0585594 1.7736893-.470686 2.1309967-1.3190002h1.8270035zm-6.3939972-2.7399993h4.5670013c.097496-1.1883907-.78685-2.2308064-1.9752426-2.3282986-.0857315-.0070343-.1718063-.0089378-.2577591-.0057011-1.2814102.0145416-2.3172607 1.0486183-2.3340073 2.3299999z"/></g><g transform="translate(36.127 8.525)"><path d="m2.2330019.3039995c1.8269999 0 2.8419993 1.1160002 2.8419993 3.0450001s-1.0149993 3.045-2.8419993 3.045h-2.2330015v-6.0900001zm-1.2179983 5.2769994h1.116001c1.0735168.0513773 1.9854243-.7772312 2.0368006-1.850749.0044746-.0934591.0022011-.1871195-.0068016-.2802515.1306305-1.0411787-.6075175-1.9911164-1.6486971-2.121745-.1264687-.0158672-.2542115-.0189676-.3813019-.0092554h-1.116001z"/><path d="m6.1910024 4.0589995c-.1664543-1.1120634.6001167-2.1485051 1.7121811-2.3149584.1385798-.0207424.2789301-.0271235.4188189-.0190411 1.1504478-.0343313 2.1109047.8704613 2.1452332 2.0209112.0031242.1045723-.0016365.2092304-.0142326.3130884.1664543 1.1120634-.6001167 2.1485052-1.7121811 2.3149586-.1385804.0207423-.2789307.0271234-.4188195.019041-1.3189998.1020002-2.131-.8119993-2.131-2.3339997zm3.3489985 0c0-1.0146666-.4059982-1.5220003-1.2179985-1.5220003s-1.217998.6090002-1.217998 1.5220003c0 1.0150003.4059982 1.6239996 1.217998 1.6239996s1.2179985-.6089992 1.2179985-1.6239996z"/><path d="m16.237999 6.3939996h-.9129982l-.9129982-3.349h-.0999985l-.9129982 3.349h-.9129982l-1.2210083-4.5670004h.9129982l.8120003 3.4499998h.0999985l.9129982-3.4499998h.9129982l.9129982 3.4499998h.0999985l.8120003-3.4499998h.9129982z"/><path d="m18.5720024 1.8249995h.9129982v.7099999h.0999985c.2275352-.5190525.7530937-.8425959 1.3190002-.8120002.8399315-.0622587 1.5713005.5681676 1.6335564 1.4080971.0078354.1056795.004631.2118874-.0095558.3169031v2.9429998h-.9129982v-2.7399997c0-.71-.2999992-1.1160002-1.0149994-1.1160002-.5574684-.0588826-1.0571175.3453007-1.1160011.9027692-.0074883.0708799-.0074883.1423512 0 .2132311v2.6389999h-.9119987v-4.465z"/><path d="m23.848999-.0000004h.9129982v6.3940001h-.9129982z"/><path d="m25.9799995 4.0589995c-.1664543-1.1120634.6001167-2.1485052 1.7121811-2.3149586.1385804-.0207422.2789307-.0271233.4188195-.0190409 1.1504517-.0343294 2.1109009.8704652 2.1452332 2.020915.0031204.1045704-.0016403.2092285-.0142365.3130846.1664505 1.1120634-.6001129 2.1485052-1.7121811 2.3149586-.1385803.0207424-.2789307.0271235-.4188194.0190411-1.3189965.1020001-2.1309968-.8119994-2.1309968-2.3339998zm3.4500008 0c0-1.0146666-.4059982-1.5220003-1.2179985-1.5220003s-1.2179985.6090002-1.2179985 1.5220003c0 1.0150003.4059982 1.6239996 1.2179985 1.6239996.7109947 0 1.2179985-.6089992 1.2179985-1.6239996z"/><path d="m31.257 5.0739999c0-.8120003.6090012-1.3190002 1.7249985-1.3190002l1.2180023-.1000004v-.4060002c0-.507-.3000031-.71-.913002-.71-.5070038 0-.8119965.1999998-.913002.507h-.9169998c.1590652-.8585577.9650269-1.4403485 1.8300018-1.320999 1.1159973 0 1.8270035.6090001 1.8270035 1.5220002v3.1459999h-.913002v-.6090003h-.0999985c-.3050156.4822359-.8522263.7556458-1.4209976.71-.7657547.0201073-1.4028244-.5843592-1.4229279-1.3501139-.0006104-.0232905-.0006409-.0465936-.0000763-.0698861zm2.9430008-.4060002v-.4060001l-1.1159974.1000004c-.6090012 0-.913002.3000002-.913002.6090002 0 .4060001.4059982.6090002.8119965.6090002.5115509.1414452 1.0409088-.1585855 1.1823502-.6701365.0217971-.0788183.0334396-.1600971.0346527-.2418642z"/><path d="m36.2300034 4.0589995c0-1.4209995.709999-2.3339995 1.9280014-2.3339995.5856171-.0060854 1.1289291.3043765 1.4209976.8120002h.0999985v-2.5370007h.913002v6.3940001h-.9120026v-.71h-.0999985c-.2920685.5076237-.8353806.8180857-1.4209976.8120003-1.1170044-.0009995-1.9290008-.9139996-1.9290008-2.4370004zm1.0149993 0c0 1.0150003.5070038 1.5220003 1.2180023 1.5220003s1.2180023-.6090002 1.2180023-1.5220003-.5070038-1.5220003-1.2180023-1.5220003c-.812004.000001-1.2180023.6090002-1.2180023 1.5220003z"/><path d="m44.2469978 4.0589995c-.1664505-1.1120634.6001129-2.1485052 1.7121811-2.3149586.1385803-.0207422.2789307-.0271233.4188233-.0190409 1.1504517-.0343294 2.1109009.8704652 2.1452332 2.020915.0031204.1045704-.0016403.2092285-.0142365.3130846.1664505 1.1120634-.6001205 2.1485052-1.7121811 2.3149576-.1385803.0207424-.2789307.0271235-.4188156.019042-1.3190003.1020002-2.1310044-.8119993-2.1310044-2.3339997zm3.449997 0c0-1.0146666-.4059982-1.5220003-1.2180023-1.5220003-.8119965 0-1.2180023.6090002-1.2180023 1.5220003 0 1.0150003.4059982 1.6239996 1.2180023 1.6239996.7110061 0 1.2180099-.6089992 1.2180023-1.6239996z"/><path d="m49.8289986 1.8249995h.913002v.7099999h.0999985c.2275314-.5190525.7530899-.8425959 1.3190002-.8120002.8399277-.0622587 1.5712967.5681676 1.6335602 1.4080971.0078278.1056795.004631.2118874-.0095596.3169031v2.9429998h-.913002v-2.7399997c0-.71-.3000031-1.1160002-1.0149994-1.1160002-.5574646-.0588799-1.0571136.3453045-1.1159973.9027729-.0074844.070879-.0074844.1423483 0 .2132273v2.6389999h-.9120026z"/><path d="m58.7590027.7099997v1.1160002h1.0149994v.8120001h-1.0149994v2.3340006c0 .507.1999969.71.6090012.71h.3000031v.71h-.5070038c-1.0149994 0-1.4209976-.3000002-1.4209976-1.2180004v-2.5360011h-.7060013v-.71h.7099991v-1.2179994z"/><path d="m60.9919968-.0000004h.913002v2.5369997h.0999985c.2522736-.5457848.8227081-.871744 1.4209976-.8120002.8399277-.0622587 1.5712967.5681676 1.6335602 1.4080971.0078278.1056795.004631.2118874-.0095596.3169031v2.9429998h-.913002v-2.7399997c0-.71-.3000031-1.1160002-1.0149994-1.1160002-.587471-.0288744-1.0871201.4239607-1.1159973 1.0114346-.001709.0348339-.001709.0697317 0 .1045656v2.6389999h-.9139938v-6.2919998h-.1000062z"/><path d="m70.227005 5.1749997c-.2609558.8785095-1.1212387 1.4374838-2.0299988 1.3190003-1.1504517.0343294-2.1109009-.8704653-2.1452332-2.020915-.0031204-.1045713.0016403-.2092285.0142365-.3130856-.147522-1.1887875.6965942-2.2720776 1.8853836-2.4195967.0814972-.0101128.1634979-.0155897.2456131-.0164032 1.3190002 0 2.0299988.913 2.0299988 2.3340006v.3000002h-3.2470016c-.0658569.659462.4153595 1.2474461 1.0748215 1.3133001.0475693.0047503.0953827.0066538.1431808.0057001.4330292.0263758.8509979-.1635084 1.1159973-.507h.913002zm-3.2470016-1.5220003h2.3339996c.0367279-.6351709-.4484024-1.1798534-1.0835724-1.2165833-.0108032-.0006247-.0216141-.0010967-.0324249-.0014172-.6537628.0440006-1.1744614.5642729-1.2190018 1.2180004h.0009995z"/></g></g></svg>