<svg enable-background="new 0 0 137.0039978 40.5940018" viewBox="0 0 137.0039978 40.5940018" xmlns="http://www.w3.org/2000/svg" xmlns:xlink="http://www.w3.org/1999/xlink"><linearGradient id="a" gradientTransform="matrix(13.2035913 0 0 -25.3699989 10995.175781 13529.918945)" gradientUnits="userSpaceOnUse" x1="-829.506287" x2="-830.797302" y1="531.129822" y2="531.801819"><stop offset="0" stop-color="#00a0ff"/><stop offset=".007" stop-color="#00a1ff"/><stop offset=".26" stop-color="#00beff"/><stop offset=".512" stop-color="#00d2ff"/><stop offset=".76" stop-color="#00dfff"/><stop offset="1" stop-color="#00e3ff"/></linearGradient><linearGradient id="b" gradientTransform="matrix(10.2997532 0 0 -8.6260004 8394.393555 4266.402832)" gradientUnits="userSpaceOnUse" x1="-812.661133" x2="-815.045166" y1="493.080078" y2="493.080078"><stop offset="0" stop-color="#ffe000"/><stop offset=".409" stop-color="#ffbd00"/><stop offset=".775" stop-color="#ffa500"/><stop offset="1" stop-color="#ff9c00"/></linearGradient><linearGradient id="c" gradientTransform="matrix(16.948 0 0 -13.0797768 14366.114258 6736.931152)" gradientUnits="userSpaceOnUse" x1="-842.06842" x2="-843.431397" y1="506.859497" y2="508.624481"><stop offset="0" stop-color="#ff3a44"/><stop offset="1" stop-color="#c31162"/></linearGradient><linearGradient id="d" gradientTransform="matrix(16.948 0 0 -13.0340929 14366.114258 6698.598633)" gradientUnits="userSpaceOnUse" x1="-853.797119" x2="-853.18811" y1="504.910034" y2="505.702057"><stop offset="0" stop-color="#32a071"/><stop offset=".068" stop-color="#2da771"/><stop offset=".476" stop-color="#15cf74"/><stop offset=".801" stop-color="#06e775"/><stop offset="1" stop-color="#00f076"/></linearGradient><path d="m131.9299927 40.5940018h-126.8559928c-2.7750976.0271949-5.0468048-2.2004204-5.0739999-4.9755173-.0003217-.0328293-.0003217-.0656586 0-.098484v-30.4460006c-.0271951-2.7750976 2.2004201-5.0468048 4.9755177-5.0739999.0328264-.0003217.0656557-.0003217.0984821 0h126.8559952c2.775116-.0249899 5.0450592 2.2044299 5.0700378 4.979548.0002876.0314836.0002724.0629687-.0000328.0944519v30.4460011c.0271759 2.7750969-2.2004547 5.0467873-4.9755554 5.0739632-.0314789.0003084-.062973.0003199-.0944519.0000376z"/><path d="m131.9299927.812c2.3479309.0141976 4.2478027 1.9140694 4.2619934 4.2620001v30.4460011c-.0141907 2.3479309-1.9140625 4.2478027-4.2619934 4.262001h-126.8559928c-2.3479335-.0141952-4.2478064-1.914067-4.2619999-4.2620017v-30.4460006c.014194-2.3479328 1.9140671-4.2478058 4.2619999-4.2619999zm0-.812h-126.8559928c-2.7988734.0082378-5.0657621 2.2751265-5.0739999 5.0739999v30.4460011c-.0271959 2.7750969 2.2004187 5.0468063 4.9755163 5.0740013.0328269.0003204.0656567.0003204.0984836 0h126.8559952c2.775116.0249901 5.0450592-2.2044296 5.0700378-4.9795494.0002899-.0314827.0002747-.0629692-.0000305-.0944519v-30.4460011c-.0082269-2.7973213-2.2726922-5.0635721-5.0700097-5.0739999z" fill="#a6a6a6"/><g fill="#fff" stroke="#fff" stroke-miterlimit="10" stroke-width=".2" transform="translate(42.015 7.002)"><path d="m6.0889974 3.3489993c.0470772.7447674-.2089958 1.4769251-.7099991 2.03-1.2238846 1.2332764-3.2158089 1.2408895-4.4490814.017004-.5993729-.5948076-.9344673-1.405597-.9299164-2.2500041-.0149766-1.7225112 1.3692549-3.1310228 3.0917663-3.1459993.0180779-.0001574.0361557-.0001574.0542336 0 .4239197.0029931.8411827.1057667 1.2179985.3000001.3619614.1514244.6770859.3964835.9129982.71l-.507.5070004c-.3901443-.4912715-.998436-.7572107-1.6240005-.71-.62183-.0262952-1.2210389.2356725-1.6240007.71-.4942474.4317265-.7571372 1.070443-.709999 1.7250003-.0471382.6545573.2157516 1.2932743.709999 1.7250007.4420853.418642 1.0164796.6697636 1.6240007.71.6512146.0272923 1.2816772-.2322016 1.7249985-.71.327919-.3199472.5110397-.7598743.507-1.2180007h-2.2319947v-.8060006h2.9430008z"/><path d="m10.757.8109998h-2.7400017v1.9289998h2.5369987v.71h-2.5369949v1.9280007h2.7400017v.8120003h-3.5520015v-6.0890009h3.5520015z"/><path d="m14.1060028 6.1899996h-.8120003v-5.3789998h-1.7250023v-.71h4.262001v.71h-1.7249985v5.3789998z"/><path d="m18.7750015 6.1899996v-6.0889999h.8120003v6.0890007z"/><path d="m23.0370026 6.1899996h-.8120003v-5.3789998h-1.7250023v-.71h4.1610031v.71h-1.7249985v5.3790007z"/><path d="m32.6780014 5.3790002c-1.2238846 1.2332764-3.2158051 1.2408895-4.4490814.017004-.5993729-.5948086-.9344711-1.4055979-.9299164-2.250005 0-1.7374877 1.4085159-3.1459999 3.1459961-3.1459999 1.7374878 0 3.1460037 1.4085121 3.1460037 3.1459999.0235214.8396606-.3079376 1.6503489-.913002 2.233001zm-3.8560028-.507c.4309158.4352093 1.0119019.6892147 1.6240005.71.6218338.0262957 1.2210388-.235672 1.6240005-.71.4550552-.4587603.7102737-1.078831.7099991-1.7250006.047142-.6545572-.2157516-1.2932738-.7099991-1.7250003-.4309158-.4352093-1.0119019-.6892142-1.6240005-.71-.6218338-.0262952-1.2210388.2356725-1.6240005.71-.4550552.4587603-.7102737 1.0788306-.7099991 1.7250003-.0470657.654048.215416 1.2922947.7089996 1.7240002z"/><path d="m34.7080002 6.1899996v-6.0889999h.913002l2.9430008 4.7700005v-4.7700005h.8119965v6.0890007h-.8119965l-3.1460037-4.9730005v4.9730005z"/></g><path d="m69.1100006 22.1240005c-2.3576736-.0524979-4.3115005 1.8162136-4.3639984 4.1738853-.0014114.063364-.0014114.1267509 0 .190115-.0188446 2.3924236 1.9053268 4.3471413 4.2977448 4.365984.0220871.0001736.0441666.0001793.0662537.0000153 2.3576736.0524979 4.3115005-1.8162136 4.3639984-4.1738853.0014114-.063364.0014114-.1267509 0-.190115.0877762-2.3234615-1.7246094-4.2781544-4.0480728-4.3659267-.1052705-.0039769-.2106553-.0040017-.3159257-.0000726zm0 6.8999997c-1.4572067-.1170616-2.543602-1.3932552-2.4265442-2.8504581.1040039-1.2946205 1.1319199-2.3225422 2.4265442-2.4265423 1.3574905.0084648 2.451088 1.1157894 2.442627 2.473278-.0003433.0552998-.0025558.1105709-.0066299.1657219.0669785 1.3895912-1.0052109 2.5703754-2.3948059 2.637352-.0137253.0006618-.0274582.0012112-.0411911.0016479v-.0009994zm-9.4379997-6.8999997c-2.3576965-.0513935-4.3106499 1.8182335-4.3620415 4.17593-.0013657.0626812-.0013542.1253872.000042.1880684-.0188408 2.3924236 1.9053307 4.3471394 4.2977524 4.3659782.0217476.0001717.043499.0001793.0652466.0000229 2.3576698.0524979 4.3115005-1.8162136 4.3639946-4.1738853.0014114-.063364.0014114-.1267509 0-.190115.0877762-2.3234615-1.7246056-4.2781544-4.048069-4.3659267-.1052704-.0039768-.2106514-.0040016-.3159256-.0000725zm0 6.8999997c-1.4572029-.1170616-2.543602-1.3932552-2.4265442-2.8504581.1040039-1.2946205 1.1319237-2.3225422 2.4265442-2.4265423 1.3574944.0073586 2.4519997 1.1137924 2.4446411 2.4712887-.0003052.0559635-.0025177.1118984-.0066414.1677113.0669594 1.3895931-1.0052452 2.5703621-2.3948402 2.6373215-.0140495.0006771-.0281029.0012379-.04216.0016785zm-11.2620011-5.5810013v1.8269997h4.3639984c-.0629349.870821-.4209747 1.6941376-1.0149994 2.3339996-.8836823.8872509-2.0976143 1.3653564-3.348999 1.3190022-2.6094131.026104-4.7459259-2.0680847-4.7720261-4.6774998-.0006485-.0645065.0000305-.1290207.0020256-.1935005-.0464058-2.6433792 2.058857-4.8238831 4.7022362-4.8702908.0225868-.0003967.0451736-.0006332.0677643-.0007095 1.2407761.0117168 2.4334717.4814606 3.348999 1.3190002l1.3190002-1.3190002c-1.2244759-1.1839828-2.864769-1.8400288-4.567997-1.8269997-3.7067528.0240669-6.7210236 2.994009-6.7999992 6.6999989.0789757 3.7059898 3.0932465 6.6759338 6.7999992 6.7000008 1.7678108.0981674 3.4847069-.6109524 4.6679993-1.9279995 1.0712471-1.1577377 1.653183-2.6849518 1.6240005-4.2619991.0219231-.374897-.011776-.7509727-.0999985-1.1159992zm46.0720025 1.4210014c-.5110855-1.5972366-1.9765549-2.6964359-3.6529999-2.7399998-2.257164.010273-4.0786285 1.8483944-4.0683594 4.1055584.0003967.0862236.0035172.1724148.0093613.2584419-.0657349 2.3446312 1.7816696 4.2986221 4.1263046 4.3643608.0448837.0012569.0897903.0018044.1346893.0016384 1.4374695.0137119 2.7802963-.7151642 3.552002-1.9279995l-1.4209976-1.0149994c-.4446564.7545891-1.2551422 1.2178345-2.1309967 1.2180004-.9158096.0474415-1.7649918-.4781666-2.1309967-1.3190002l5.7850037-2.4360008zm-5.8860016 1.4209995c-.0438004-1.3031559.9348297-2.4150181 2.2330017-2.5370007.6689758-.0212727 1.2945175.3304005 1.6240005.9130001zm-4.7699967 4.1609993h1.9280014v-12.6859989h-1.9280014zm-3.0449981-7.407999c-.6136093-.6330261-1.4525528-.9978619-2.3339996-1.0149994-2.3312302.1070194-4.165062 2.0303154-4.1610031 4.3640003-.0343399 2.3193417 1.8180237 4.2273769 4.1373596 4.2617149.0078812.0001183.0157623.0002117.0236435.0002842.8574142.00667 1.6742477-.3646183 2.2329941-1.0150013h.0999985v.6089993c.1222305 1.2682438-.8067932 2.3954487-2.0750351 2.517683-1.0466309.100872-2.0290451-.5187225-2.3889618-1.5066814l-1.6240005.7099991c.6610641 1.5417576 2.1785049 2.5401363 3.8560028 2.5370007 2.2330017 0 4.0589981-1.3190002 4.0589981-4.4650021v-7.7089977h-1.826004v.7099991zm-2.2330017 5.987999c-1.4572067-.1170616-2.543602-1.3932552-2.4265442-2.8504581.1040039-1.2946205 1.1319199-2.3225422 2.4265442-2.4265423 1.3475494.0551586 2.3952408 1.1922798 2.3400803 2.5398312-.0013504.0330944-.0033798.0661564-.0060806.0991688.1088486 1.3442802-.892662 2.522274-2.2369385 2.6311245-.0319824.0025902-.064003.004549-.0960617.0058765zm24.7619934-11.2659989h-4.5659943v12.6849995h1.9280014v-4.7700005h2.6379929c2.1859436.1099091 4.0470963-1.5730515 4.1570053-3.7589931s-1.5730515-4.0470982-3.7589951-4.1570072c-.1325836-.0066662-.2654266-.0066662-.3980103 0v.0010013zm.0999984 6.0890007h-2.7399979v-4.3640003h2.7399979c1.1953125-.0033016 2.1804504.9368382 2.2330017 2.1310005-.0457 1.2138157-1.0191803 2.1872979-2.2330017 2.2329998zm11.6709977-1.8269996c-1.4078217-.1126347-2.7394638.6539822-3.348999 1.9279995l1.7249985.7099991c.3444824-.6180363 1.0202179-.975687 1.7249985-.9130001.9979782-.0752125 1.8843079.6338539 2.0299988 1.6240005v.1000004c-.5899887-.3279972-1.2529907-.502346-1.9280014-.507-1.8270035 0-3.6529999 1.0149994-3.6529999 2.842001.0694809 1.6404724 1.4556732 2.914011 3.0961456 2.8445301.0166245-.0007038.0332489-.0015469.0498581-.0025311.9657593.0322418 1.8823318-.4260445 2.435997-1.2180004h.0999985v1.0149994h1.8270035v-4.8710003c-.1543121-2.0937843-1.961174-3.6757393-4.0569916-3.552zm-.199997 7c-.6090012 0-1.5220032-.2999992-1.5220032-1.1159992 0-1.0149994 1.1159973-1.3190002 2.0299988-1.3190002.5984344.0020599 1.1884689.140934 1.7249985.4060001-.1586304 1.1266861-1.0973587 1.9805374-2.2339935 2.0319977zm10.6559982-6.7000008-2.1309967 5.4799995h-.0999985l-2.2330017-5.4799995h-2.0299988l3.348999 7.7129993-1.9280014 4.262001h1.9280014l5.1760025-11.9750023zm-17.0490036 8.1189995h1.9220123v-12.6809998h-1.9280014z" fill="#fff"/><g transform="translate(10.148 7.253)"><path d="m.4059999.3579996c-.3132811.4037065-.4587145.9127226-.4060001 1.4209995v22.4280014c-.0221376.5215626.1597118 1.0312443.507 1.4209995l.1000004.0999985 12.5860004-12.5829983v-.2000008z" fill="url(#a)"/><path d="m17.2520008 17.4069996-4.1610012-4.1610003v-.2999992l4.1610012-4.165.1000004.1000004 4.9730015 2.842c1.4210014.8120003 1.4210014 2.1310005 0 2.9430008l-5.0739994 2.7399988z" fill="url(#b)"/><path d="m17.3539982 17.3059998-4.2619982-4.2620001-12.6860011 12.6860017c.507.507 1.2180004.507 2.1310005.0999985l14.8169985-8.5249996" fill="url(#c)"/><path d="m17.3539982 8.7810001-14.8169987-8.4280001c-.6385966-.4942203-1.5414925-.4518509-2.1310006.0999999l12.6860011 12.5900003z" fill="url(#d)"/><g transform="translate(0 17.204)"><path d="m17.2519989.0000003-14.7149994 8.3220002c-.5978241.4619522-1.4321756.4619522-2.0299997 0l-.1000005.0999985.1000004.0999985c.5978241.4619522 1.4321756.4619522 2.0299997 0z" opacity=".2"/><path d="m.4059999 8.3219986c-.3132811-.4037051-.4587145-.9127231-.4060001-1.4209991v.1000004c-.0221386.5215626.1597118 1.0312457.507 1.421001v-.0999985z" opacity=".12"/></g><path d="m22.3260002 14.3629999-5.0740013 2.842.1000004.1000004 4.9730015-2.8420019c.5760269-.2474689.9673119-.7939587 1.0159988-1.4189987 0 .5069999-.406002.9130001-1.0149994 1.3190002z" opacity=".12"/><path d="m2.5369995.4599998 19.7900002 11.2640002c.6090012.4060001 1.0149994.8120003 1.0149994 1.3190002-.0477867-.6255512-.4387627-1.1729145-1.0149994-1.4209995l-19.7900002-11.2640006c-1.4209996-.8120003-2.5369997-.205-2.5369997 1.4209995v.1000004c0-1.5209999 1.1160001-2.231 2.5369997-1.4190002z" fill="#fff" opacity=".25"/></g></svg>